HIERARCHY
ROOT reference
{
  OFFSET 0 0 0
  CHANNELS 6 Xposition Yposition Zposition Zrotation Xrotation Yrotation
  JOINT Hips
  {
    OFFSET -20.7096 70.7496 81.5274
    CHANNELS 6 Xposition Yposition Zposition Zrotation Xrotation Yrotation
    JOINT Spine
    {
      OFFSET 0 8.12958 0
      CHANNELS 6 Xposition Yposition Zposition Zrotation Xrotation Yrotation
      JOINT Spine1
      {
        OFFSET 0 26.3907 0
        CHANNELS 6 Xposition Yposition Zposition Zrotation Xrotation Yrotation
        JOINT Neck
        {
          OFFSET 0 26.2823 2.3893
          CHANNELS 6 Xposition Yposition Zposition Zrotation Xrotation Yrotation
          JOINT Head
          {
            OFFSET 0 13.8798 -1.98282
            CHANNELS 6 Xposition Yposition Zposition Zrotation Xrotation Yrotation
            End Site
            {
              OFFSET 0 24.7853 0
            }
          }
        }
        JOINT LeftShoulder
        {
          OFFSET 3.97789 23.5745 -0.27352
          CHANNELS 6 Xposition Yposition Zposition Zrotation Xrotation Yrotation
          JOINT LeftArm
          {
            OFFSET 13.7626 0 0
            CHANNELS 6 Xposition Yposition Zposition Zrotation Xrotation Yrotation
            JOINT LeftForeArm
            {
              OFFSET 26.1014 0 0
              CHANNELS 6 Xposition Yposition Zposition Zrotation Xrotation Yrotation
              JOINT LeftHand
              {
                OFFSET 29.9599 0 0
                CHANNELS 6 Xposition Yposition Zposition Zrotation Xrotation Yrotation
                End Site
                {
                  OFFSET 14.8712 0 0
                }
              }
            }
          }
        }
        JOINT RightShoulder
        {
          OFFSET -3.9517 23.5745 -0.27352
          CHANNELS 6 Xposition Yposition Zposition Zrotation Xrotation Yrotation
          JOINT RightArm
          {
            OFFSET -13.7626 0 0
            CHANNELS 6 Xposition Yposition Zposition Zrotation Xrotation Yrotation
            JOINT RightForeArm
            {
              OFFSET -26.1014 0 0
              CHANNELS 6 Xposition Yposition Zposition Zrotation Xrotation Yrotation
              JOINT RightHand
              {
                OFFSET -29.9599 0 0
                CHANNELS 6 Xposition Yposition Zposition Zrotation Xrotation Yrotation
                End Site
                {
                  OFFSET -14.8712 0 0
                }
              }
            }
          }
        }
      }
    }
    JOINT LeftUpLeg
    {
      OFFSET 9.91412 0 0
      CHANNELS 6 Xposition Yposition Zposition Zrotation Xrotation Yrotation
      JOINT LeftLeg
      {
        OFFSET 0 -41.4279 0
        CHANNELS 6 Xposition Yposition Zposition Zrotation Xrotation Yrotation
        JOINT LeftFoot
        {
          OFFSET 0 -41.0254 0
          CHANNELS 6 Xposition Yposition Zposition Zrotation Xrotation Yrotation
          JOINT LeftToeBase
          {
            OFFSET 0 -6.44418 14.8712
            CHANNELS 6 Xposition Yposition Zposition Zrotation Xrotation Yrotation
            End Site
            {
              OFFSET 0 0 3.96565
            }
          }
        }
      }
    }
    JOINT RightUpLeg
    {
      OFFSET -9.91412 0 0
      CHANNELS 6 Xposition Yposition Zposition Zrotation Xrotation Yrotation
      JOINT RightLeg
      {
        OFFSET 0 -41.4279 0
        CHANNELS 6 Xposition Yposition Zposition Zrotation Xrotation Yrotation
        JOINT RightFoot
        {
          OFFSET 0 -41.0254 0
          CHANNELS 6 Xposition Yposition Zposition Zrotation Xrotation Yrotation
          JOINT RightToeBase
          {
            OFFSET 0 -6.44418 14.8712
            CHANNELS 6 Xposition Yposition Zposition Zrotation Xrotation Yrotation
            End Site
            {
              OFFSET 0 0 3.96565
            }
          }
        }
      }
    }
  }
}
MOTION
Frames:	5
Frame Time:	0.004
0 0 0 0 0 -0 -25.6295 83.5737 -215.191 0.505133 -2.18204 3.00551 -3.55271e-015 8.12958 2.84217e-014 -1.08904 2.62951 -2.5031 0 26.3907 0 0.423651 -7.12117 -2.50402 0 26.2823 2.3893 1.37381 12.4779 -2.62003 0 13.8798 -1.98282 0.537385 -2.18844 -2.68877 3.97789 23.5745 -0.27352 14.8974 3.00896 1.57435 13.7626 0 0 -15.2145 0.438825 4.02584 26.1014 2.84217e-014 0 -0.0253735 0.841624 -0.315809 29.9599 0 2.84217e-014 2.92903 0.888889 1.86012 -3.9517 23.5745 -0.27352 -11.9797 -1.36498 0.520427 -13.7626 0 -2.84217e-014 13.2996 0.694869 -3.97996 -26.1014 0 0 -3.41402 3.3249 -0.578272 -29.9599 -2.84217e-014 2.84217e-014 1.04513 3.35421 5.10759 9.91412 -2.84217e-014 0 -1.86971 5.24888 1.38475 0 -41.4279 0 1.11683 -1.40565 2.99145 0 -41.0254 2.84217e-014 2.63962 -2.61564 2.88227 0 -6.44418 14.8712 2.73329e-016 -2.98177e-016 1.59028e-015 -9.91412 -1.42109e-014 0 -0.0944265 4.57703 0.719029 3.55271e-015 -41.4279 0 -0.166002 2.36032 2.57269 7.10543e-015 -41.0254 0 -1.06799 -5.53872 -15.3512 0 -6.44418 14.8712 2.23633e-016 -1.98785e-016 -3.18055e-015 
0 0 0 0 0 -0 -25.6295 83.5737 -215.191 0.504972 -2.18205 3.00128 1.77636e-015 8.12958 0 -1.08904 2.62951 -2.5031 -3.55271e-015 26.3907 0 0.423651 -7.12117 -2.50402 0 26.2823 2.3893 1.37036 12.458 -2.60821 0 13.8798 -1.98282 0.530856 -2.18846 -2.67753 3.97789 23.5745 -0.27352 14.885 2.99537 1.57433 13.7626 0 -2.84217e-014 -15.2174 0.47945 4.02587 26.1014 -2.84217e-014 2.84217e-014 -0.0116418 0.841624 -0.315809 29.9599 2.84217e-014 0 2.90715 0.888889 1.86012 -3.9517 23.5745 -0.27352 -11.9871 -1.36498 0.520427 -13.7626 0 0 13.3013 0.720389 -3.97163 -26.1014 2.84217e-014 2.84217e-014 -3.4041 3.28347 -0.578248 -29.9599 0 0 0.978888 3.3095 5.059 9.91412 0 -2.84217e-014 -1.86857 5.24891 1.37221 3.55271e-015 -41.4279 0 1.11737 -1.40562 3.01342 0 -41.0254 0 2.66436 -2.61565 2.87804 -3.55271e-015 -6.44418 14.8712 4.72114e-016 9.93923e-017 -0 -9.91412 0 0 -0.0944228 4.57673 0.719029 7.10543e-015 -41.4279 2.84217e-014 -0.166625 2.36564 2.58198 -3.55271e-015 -41.0254 0 -1.08991 -5.53872 -15.3512 0 -6.44418 14.8712 -2.73329e-016 -9.93923e-017 1.59028e-015 
0 0 0 0 0 -0 -25.6295 83.5737 -215.191 0.504771 -2.18206 2.99601 1.77636e-015 8.12958 0 -1.08904 2.62951 -2.5031 0 26.3907 -2.84217e-014 0.423664 -7.12087 -2.50402 0 26.2823 2.3893 1.37354 12.4521 -2.58489 0 13.8798 -1.98282 0.526423 -2.1885 -2.65419 3.97789 23.5745 -0.27352 14.8758 2.99835 1.57434 13.7626 2.84217e-014 0 -15.2191 0.503798 4.02384 26.1014 0 -2.84217e-014 -0.0100929 0.839992 -0.315809 29.9599 2.84217e-014 -2.84217e-014 2.8851 0.886831 1.86012 -3.9517 23.5745 -0.27352 -11.9935 -1.36498 0.520427 -13.7626 0 -2.84217e-014 13.3024 0.736186 -3.96942 -26.1014 0 0 -3.418 3.28066 -0.586593 -29.9599 -2.84217e-014 0 1.02544 3.30863 5.08211 9.91412 0 0 -1.86863 5.24174 1.37478 0 -41.4279 0 1.11799 -1.40558 3.03883 3.55271e-015 -41.0254 0 2.64267 -2.61568 2.86173 0 -6.44418 14.8712 -6.21202e-017 -1.98785e-016 1.59028e-015 -9.91412 -1.42109e-014 0 -0.0942199 4.56062 0.719013 7.10543e-015 -41.4279 0 -0.167606 2.37615 2.5942 3.55271e-015 -41.0254 0 -1.06949 -5.5388 -15.3485 1.42109e-014 -6.44418 14.8712 4.96962e-017 2.98177e-016 -0 
0 0 0 0 0 -0 -25.6295 83.5737 -215.192 0.504571 -2.18207 2.99075 0 8.12958 2.84217e-014 -1.08904 2.62951 -2.5031 3.55271e-015 26.3907 0 0.423734 -7.1193 -2.50401 7.10543e-015 26.2823 2.3893 1.38123 12.4382 -2.5676 0 13.8798 -1.98282 0.512182 -2.1907 -2.63891 3.97789 23.5745 -0.27352 14.8699 2.99703 1.57433 13.7626 0 2.84217e-014 -15.2184 0.495602 4.01468 26.1014 0 0 -0.0146776 0.851859 -0.31581 29.9599 0 -2.84217e-014 2.92401 0.899533 1.86571 -3.9517 23.5745 -0.27352 -11.9948 -1.35898 0.520426 -13.7626 0 0 13.302 0.731852 -3.96433 -26.1014 2.84217e-014 2.84217e-014 -3.40904 3.26069 -0.588762 -29.9599 0 0 0.990049 3.28677 5.04393 9.91412 0 5.68434e-014 -1.86834 5.2326 1.36565 -3.55271e-015 -41.4279 -2.84217e-014 1.1181 -1.40558 3.04313 -3.55271e-015 -41.0254 0 2.66721 -2.61568 2.86573 3.55271e-015 -6.44418 14.8712 -7.45443e-017 1.98785e-016 -1.59028e-015 -9.91412 1.42109e-014 0 -0.0954474 4.55011 0.73614 0 -41.4279 -2.84217e-014 -0.155471 2.38334 2.60336 0 -41.0254 2.84217e-014 -1.086 -5.53813 -15.3736 0 -6.44418 14.8712 1.2424e-016 9.93923e-017 -1.59028e-015 
0 0 0 0 0 -0 -25.6296 83.5737 -215.194 0.501878 -2.19024 2.98618 -1.77636e-015 8.12958 -2.84217e-014 -1.08671 2.62951 -2.5031 0 26.3907 -2.84217e-014 0.423812 -7.11753 -2.504 0 26.2823 2.3893 1.37485 12.4457 -2.56274 0 13.8798 -1.98282 0.524968 -2.21023 -2.63134 3.97789 23.5745 -0.27352 14.8698 3.00617 1.56905 13.7626 0 0 -15.2195 0.487566 4.01374 26.1014 -2.84217e-014 0 -0.0113821 0.863941 -0.315811 29.9599 2.84217e-014 2.84217e-014 2.89627 0.911174 1.86947 -3.9517 23.5745 -0.27352 -11.9958 -1.36316 0.520427 -13.7626 -2.84217e-014 0 13.2999 0.701694 -3.9606 -26.1014 2.84217e-014 0 -3.41117 3.27807 -0.594022 -29.9599 2.84217e-014 0 1.03845 3.30623 5.05596 9.91412 -2.84217e-014 0 -1.86962 5.24393 1.36901 -3.55271e-015 -41.4279 2.84217e-014 1.11731 -1.40562 3.0111 -3.55271e-015 -41.0254 0 2.65384 -2.6156 2.89769 0 -6.44418 14.8712 -9.93923e-017 -9.93923e-017 -0 -9.91412 -1.42109e-014 2.84217e-014 -0.0956731 4.56052 0.737302 0 -41.4279 -5.68434e-014 -0.166694 2.37688 2.59826 -3.55271e-015 -41.0254 0 -1.07855 -5.53879 -15.3488 0 -6.44418 14.8712 2.48481e-017 9.93923e-017 -3.18055e-015 
